<svg xmlns="http://www.w3.org/2000/svg" viewBox="0 0 96 96" role="img" aria-label="Amazon">
  <rect width="96" height="96" fill="transparent"/>
  <path d="M56 68c-5 5-11 8-20 8-12 0-22-7-22-20 0-15 13-22 34-22h6v-3c0-7-4-11-12-11-7 0-12 3-18 7l-7-10c8-6 17-9 28-9 18 0 28 8 28 24v28c0 5 2 8 5 10l-11 8c-5-2-8-5-11-10Zm-2-23h-5c-11 0-17 3-17 10 0 6 4 9 10 9 5 0 9-2 12-6V45Z" fill="#111"/>
  <path d="M20 79c16 9 37 10 56 0" fill="none" stroke="#F59E0B" stroke-width="5" stroke-linecap="round"/>
  <path d="M75 78 82 76 78 84" fill="none" stroke="#F59E0B" stroke-width="4" stroke-linecap="round" stroke-linejoin="round"/>
</svg>
