<svg xmlns="http://www.w3.org/2000/svg" viewBox="0 0 96 96" role="img" aria-label="Shopee">
  <rect width="96" height="96" fill="transparent"/>
  <path d="M22 31h52l-4 45c-1 6-5 10-11 10H37c-6 0-10-4-11-10L22 31Z" fill="#EE4D2D"/>
  <path d="M34 33c0-13 6-22 15-22s15 9 15 22" fill="none" stroke="#EE4D2D" stroke-width="7" stroke-linecap="round"/>
  <path d="M61 43c-4-3-9-5-14-5-7 0-12 4-12 10 0 7 7 9 13 11 5 2 7 4 7 7 0 4-4 6-9 6-6 0-11-3-15-6" fill="none" stroke="#111" stroke-width="4" stroke-linecap="round"/>
</svg>
