<svg xmlns="http://www.w3.org/2000/svg" viewBox="0 0 96 96" role="img" aria-label="Shopify">
  <rect width="96" height="96" fill="transparent"/>
  <path d="M28 28 66 22l9 58-58-11 11-41Z" fill="#7AB55C"/>
  <path d="M33 28c2-11 8-19 17-20 7-1 12 4 14 13" fill="none" stroke="#A6D968" stroke-width="5" stroke-linecap="round"/>
  <path d="M42 29c1-8 5-14 11-15 4 0 8 3 9 9" fill="none" stroke="#D5F3A4" stroke-width="4" stroke-linecap="round"/>
  <path d="M58 36c-4-2-10-3-14-1-5 2-8 6-7 11 1 7 9 8 14 11 3 2 4 5 1 7-4 3-12 1-17-2l-3 9c6 4 17 6 25 1 6-4 9-10 7-16-2-7-8-10-15-13-3-1-4-4-1-5 3-2 8-1 12 1l-2-3Z" fill="#fff"/>
</svg>
