<svg xmlns="http://www.w3.org/2000/svg" viewBox="0 0 96 96" role="img" aria-label="TikTok Shop">
  <rect width="96" height="96" fill="transparent"/>
  <path d="M20 31c1-6 6-10 12-10h32c6 0 11 4 12 10l6 42c1 7-4 13-12 13H26c-8 0-13-6-12-13l6-42Z" fill="#fff"/>
  <path d="M20 31c1-6 6-10 12-10h32c6 0 11 4 12 10" fill="none" stroke="#111827" stroke-width="4"/>
  <path d="M18 34 14 73c-1 7 4 13 12 13" fill="none" stroke="#25F4EE" stroke-width="4" stroke-linecap="round"/>
  <path d="M78 34 82 73c1 7-4 13-12 13" fill="none" stroke="#FE2C55" stroke-width="4" stroke-linecap="round"/>
  <path d="M58 27v31c0 10-8 18-19 18-9 0-17-6-17-15 0-10 8-16 18-16 3 0 5 1 7 2v9c-2-2-4-3-7-3-5 0-9 3-9 8s4 8 9 8 9-4 9-10V27h9Z" fill="#111"/>
  <path d="M58 27c3 10 9 16 18 17v9c-8 0-14-3-18-8V27Z" fill="#111"/>
</svg>
